<svg version="1.1" id="Layer_1" xmlns="http://www.w3.org/2000/svg" xmlns:xlink="http://www.w3.org/1999/xlink" x="0px" y="0px"
	 width="100%" viewBox="0 0 256 224" enable-background="new 0 0 256 224" xml:space="preserve">
<path fill="#60a5fa" opacity="1.000000" stroke="none" 
	d="
M74.917358,211.918060 
	C71.746735,214.828949 69.366692,218.091446 65.991928,220.242432 
	C63.899170,219.041687 64.695053,217.173233 64.692856,215.670105 
	C64.650459,186.691559 64.727638,157.712738 64.624275,128.734512 
	C64.608246,124.239655 66.068245,120.705261 69.162483,117.569000 
	C78.738022,107.863380 88.237015,98.082237 97.576988,87.000839 
	C77.851418,87.000839 58.125847,87.000839 38.511276,87.000839 
	C38.405670,85.566277 38.231518,85.100212 38.380074,84.946968 
	C47.409241,75.632866 56.309586,66.185120 65.595657,57.133217 
	C69.232933,53.587666 74.880661,54.949348 79.211708,59.661057 
	C89.226410,70.555969 99.297707,81.393440 108.989159,92.589500 
	C115.518799,100.132851 122.661606,107.157471 129.718155,114.226425 
	C132.334595,116.847466 132.250351,118.630997 129.630661,121.198853 
	C119.642715,130.989197 110.119186,141.271790 99.840988,150.739548 
	C94.868927,155.319565 93.484818,160.572510 93.385887,166.672272 
	C93.277878,173.332321 93.186264,180.000961 93.408722,186.655121 
	C93.559555,191.166687 91.972633,194.765167 88.912407,197.860626 
	C84.346672,202.478882 79.749290,207.065857 74.917358,211.918060 
z"/>
<path fill="#60a5fa" opacity="1.000000" stroke="none" 
	d="
M206.996170,81.027954 
	C203.832184,84.761696 200.395248,86.524124 195.572311,86.659500 
	C174.752136,87.243912 153.935654,86.767570 133.118896,86.878952 
	C131.226608,86.889076 129.501617,86.492432 128.115585,85.057243 
	C119.558586,76.196724 110.981003,67.356049 102.441200,58.479019 
	C102.036072,58.057884 101.924377,57.354458 101.413063,56.176884 
	C144.531860,56.176884 187.175797,56.176884 231.493439,56.176884 
	C222.877319,64.918808 215.063034,72.847198 206.996170,81.027954 
z"/>
<path fill="#60a5fa" opacity="1.000000" stroke="none" 
	d="
M171.399475,147.552063 
	C169.746826,149.317932 168.150711,150.603928 166.057602,150.741455 
	C153.302902,151.579422 140.557007,151.146515 128.048279,150.945328 
	C127.085991,148.740463 128.254654,147.833191 129.140106,146.923584 
	C136.805847,139.048706 144.538620,131.238876 152.173218,123.334106 
	C154.773254,120.642059 157.712509,119.510612 161.508926,119.577972 
	C171.664261,119.758171 181.825394,119.598984 191.984192,119.605812 
	C193.619904,119.606918 195.313934,119.319542 197.974899,120.726639 
	C189.012039,129.773834 180.336258,138.531250 171.399475,147.552063 
z"/>
</svg>